<svg width="48" height="48" viewBox="0 0 48 48" fill="none" xmlns="http://www.w3.org/2000/svg">
<g id="mdi:instagram">
<path id="Vector" d="M15.6 4.3H32.4C38.6343 4.3 43.7 9.36569 43.7 15.6V32.4C43.7 35.3969 42.5095 38.2711 40.3903 40.3903C38.2711 42.5095 35.3969 43.7 32.4 43.7H15.6C9.36569 43.7 4.3 38.6343 4.3 32.4V15.6C4.3 12.6031 5.49053 9.72885 7.60969 7.60969C9.72885 5.49053 12.6031 4.3 15.6 4.3ZM15.2 7.7C13.2109 7.7 11.3032 8.49018 9.8967 9.8967C8.49018 11.3032 7.7 13.2109 7.7 15.2V32.8C7.7 36.9457 11.0543 40.3 15.2 40.3H32.8C34.7891 40.3 36.6968 39.5098 38.1033 38.1033C39.5098 36.6968 40.3 34.7891 40.3 32.8V15.2C40.3 11.0543 36.9457 7.7 32.8 7.7H15.2ZM34.5 11.3C35.0835 11.3 35.6431 11.5318 36.0556 11.9444C36.4682 12.3569 36.7 12.9165 36.7 13.5C36.7 14.0835 36.4682 14.6431 36.0556 15.0556C35.6431 15.4682 35.0835 15.7 34.5 15.7C33.9165 15.7 33.3569 15.4682 32.9444 15.0556C32.5318 14.6431 32.3 14.0835 32.3 13.5C32.3 12.9165 32.5318 12.3569 32.9444 11.9444C33.3569 11.5318 33.9165 11.3 34.5 11.3ZM24 14.3C26.5726 14.3 29.0398 15.322 30.8589 17.1411C32.678 18.9602 33.7 21.4274 33.7 24C33.7 26.5726 32.678 29.0398 30.8589 30.8589C29.0398 32.678 26.5726 33.7 24 33.7C21.4274 33.7 18.9602 32.678 17.1411 30.8589C15.322 29.0398 14.3 26.5726 14.3 24C14.3 21.4274 15.322 18.9602 17.1411 17.1411C18.9602 15.322 21.4274 14.3 24 14.3ZM24 17.7C22.3291 17.7 20.7267 18.3637 19.5452 19.5452C18.3637 20.7267 17.7 22.3291 17.7 24C17.7 25.6709 18.3637 27.2733 19.5452 28.4548C20.7267 29.6363 22.3291 30.3 24 30.3C25.6709 30.3 27.2733 29.6363 28.4548 28.4548C29.6363 27.2733 30.3 25.6709 30.3 24C30.3 22.3291 29.6363 20.7267 28.4548 19.5452C27.2733 18.3637 25.6709 17.7 24 17.7Z" fill="white" stroke="#313131" stroke-width="0.6"/>
</g>
</svg>
