<svg width="40" height="40" viewBox="0 0 40 40" fill="none" xmlns="http://www.w3.org/2000/svg">
    <path d="M19.9997 6.24984C19.6167 6.24984 19.2374 6.32528 18.8835 6.47186C18.5296 6.61843 18.2081 6.83327 17.9373 7.10411C17.6664 7.37495 17.4516 7.69648 17.305 8.05034C17.1585 8.40421 17.083 8.78348 17.083 9.1665C17.083 9.54953 17.1585 9.9288 17.305 10.2827C17.4516 10.6365 17.6664 10.9581 17.9373 11.2289C18.2081 11.4997 18.5296 11.7146 18.8835 11.8612C19.2374 12.0077 19.6167 12.0832 19.9997 12.0832C20.7732 12.0832 21.5151 11.7759 22.0621 11.2289C22.6091 10.6819 22.9163 9.94005 22.9163 9.1665C22.9163 8.39296 22.6091 7.65109 22.0621 7.10411C21.5151 6.55713 20.7732 6.24984 19.9997 6.24984ZM14.9997 9.1665C14.9997 7.84042 15.5265 6.56865 16.4641 5.63097C17.4018 4.69329 18.6736 4.1665 19.9997 4.1665C21.3258 4.1665 22.5975 4.69329 23.5352 5.63097C24.4729 6.56865 24.9997 7.84042 24.9997 9.1665C24.9997 10.4926 24.4729 11.7644 23.5352 12.702C22.5975 13.6397 21.3258 14.1665 19.9997 14.1665C18.6736 14.1665 17.4018 13.6397 16.4641 12.702C15.5265 11.7644 14.9997 10.4926 14.9997 9.1665ZM30.833 7.9165C30.2805 7.9165 29.7506 8.136 29.3599 8.5267C28.9692 8.9174 28.7497 9.4473 28.7497 9.99984C28.7497 10.5524 28.9692 11.0823 29.3599 11.473C29.7506 11.8637 30.2805 12.0832 30.833 12.0832C31.3855 12.0832 31.9154 11.8637 32.3062 11.473C32.6968 11.0823 32.9163 10.5524 32.9163 9.99984C32.9163 9.4473 32.6968 8.9174 32.3062 8.5267C31.9154 8.136 31.3855 7.9165 30.833 7.9165ZM26.6663 9.99984C26.6663 8.89477 27.1053 7.83496 27.8867 7.05356C28.6681 6.27216 29.7279 5.83317 30.833 5.83317C31.9381 5.83317 32.9979 6.27216 33.7793 7.05356C34.5607 7.83496 34.9997 8.89477 34.9997 9.99984C34.9997 11.1049 34.5607 12.1647 33.7793 12.9461C32.9979 13.7275 31.9381 14.1665 30.833 14.1665C29.7279 14.1665 28.6681 13.7275 27.8867 12.9461C27.1053 12.1647 26.6663 11.1049 26.6663 9.99984ZM7.08301 9.99984C7.08301 9.4473 7.3025 8.9174 7.6932 8.5267C8.0839 8.136 8.61381 7.9165 9.16634 7.9165C9.71888 7.9165 10.2488 8.136 10.6395 8.5267C11.0302 8.9174 11.2497 9.4473 11.2497 9.99984C11.2497 10.5524 11.0302 11.0823 10.6395 11.473C10.2488 11.8637 9.71888 12.0832 9.16634 12.0832C8.61381 12.0832 8.0839 11.8637 7.6932 11.473C7.3025 11.0823 7.08301 10.5524 7.08301 9.99984ZM9.16634 5.83317C8.06127 5.83317 7.00146 6.27216 6.22006 7.05356C5.43866 7.83496 4.99967 8.89477 4.99967 9.99984C4.99967 11.1049 5.43866 12.1647 6.22006 12.9461C7.00146 13.7275 8.06127 14.1665 9.16634 14.1665C10.2714 14.1665 11.3312 13.7275 12.1126 12.9461C12.894 12.1647 13.333 11.1049 13.333 9.99984C13.333 8.89477 12.894 7.83496 12.1126 7.05356C11.3312 6.27216 10.2714 5.83317 9.16634 5.83317ZM12.4997 19.3748C12.4997 18.4355 12.8728 17.5347 13.537 16.8705C14.2012 16.2063 15.102 15.8332 16.0413 15.8332H23.958C24.8973 15.8332 25.7982 16.2063 26.4623 16.8705C27.1265 17.5347 27.4997 18.4355 27.4997 19.3748V28.3332C27.4997 30.3223 26.7095 32.2299 25.303 33.6365C23.8965 35.043 21.9888 35.8332 19.9997 35.8332C18.0106 35.8332 16.1029 35.043 14.6964 33.6365C13.2899 32.2299 12.4997 30.3223 12.4997 28.3332V19.3748ZM19.9997 33.7498C21.4363 33.7498 22.814 33.1792 23.8298 32.1633C24.8457 31.1475 25.4163 29.7698 25.4163 28.3332V19.3748C25.4163 18.9881 25.2627 18.6171 24.9892 18.3436C24.7157 18.0701 24.3448 17.9165 23.958 17.9165H16.0413C15.6546 17.9165 15.2836 18.0701 15.0101 18.3436C14.7367 18.6171 14.583 18.9881 14.583 19.3748V28.3332C14.583 29.7698 15.1537 31.1475 16.1695 32.1633C17.1853 33.1792 18.5631 33.7498 19.9997 33.7498ZM9.16634 31.2498C9.8631 31.25 10.5461 31.0561 11.1388 30.6898C11.3213 31.3782 11.5822 32.034 11.9105 32.6482C11.0216 33.122 10.0252 33.3576 9.01819 33.3321C8.01121 33.3065 7.02801 33.0206 6.16433 32.5022C5.30065 31.9838 4.58593 31.2506 4.08976 30.374C3.59359 29.4973 3.33287 28.5071 3.33301 27.4998V19.3757C3.3329 18.9105 3.42443 18.4499 3.60236 18.0201C3.7803 17.5903 4.04116 17.1998 4.37004 16.8708C4.69893 16.5418 5.0894 16.2809 5.51915 16.1028C5.94889 15.9248 6.40951 15.8332 6.87467 15.8332H11.458C11.6986 15.8337 11.9322 15.8568 12.1588 15.9023C11.6399 16.4816 11.2574 17.1699 11.0397 17.9165H6.87467C6.4879 17.9165 6.11697 18.0701 5.84348 18.3436C5.56999 18.6171 5.41634 18.9881 5.41634 19.3748V27.4998C5.41634 28.4944 5.81143 29.4482 6.51469 30.1515C7.21795 30.8547 8.17178 31.2498 9.16634 31.2498ZM30.833 33.3332C29.876 33.3337 28.9336 33.0987 28.0888 32.649C28.4172 32.034 28.678 31.3782 28.8605 30.6898C29.4286 31.0412 30.0802 31.2344 30.748 31.2496C31.4158 31.2647 32.0755 31.1012 32.6589 30.776C33.2423 30.4507 33.7283 29.9756 34.0666 29.3996C34.4048 28.8237 34.5831 28.1678 34.583 27.4998V19.3748C34.583 18.9881 34.4294 18.6171 34.1559 18.3436C33.8824 18.0701 33.5114 17.9165 33.1247 17.9165H28.9597C28.7417 17.1698 28.359 16.4815 27.8397 15.9023C28.0675 15.8568 28.3013 15.8337 28.5413 15.8332H33.1247C34.064 15.8332 34.9648 16.2063 35.629 16.8705C36.2932 17.5347 36.6663 18.4355 36.6663 19.3748V27.4998C36.6663 29.0469 36.0518 30.5307 34.9578 31.6246C33.8638 32.7186 32.3801 33.3332 30.833 33.3332Z" fill="#00B595"/>
</svg>
