<svg width="48" height="47" viewBox="0 0 48 47" fill="none" xmlns="http://www.w3.org/2000/svg">
    <path d="M15 18.1718V23.1457C14.0303 23.78 13.2451 24.6496 12.7207 25.6695C12.1964 26.6895 11.9509 27.8251 12.0081 28.9656C12.0654 30.1061 12.4234 31.2126 13.0473 32.1774C13.6712 33.1421 14.5398 33.932 15.5683 34.4703C16.5968 35.0085 17.7502 35.2767 18.916 35.2486C20.0818 35.2205 21.2203 34.8972 22.2206 34.3101C23.2208 33.7229 24.0486 32.8921 24.6233 31.8985C25.1981 30.9049 25.5001 29.7825 25.5 28.6406L15 18.1718ZM15 18.1718C15.0111 18.1678 15.0223 18.1638 15.0335 18.1599L15 18.0656H14.9V18.1017C10.5726 19.6858 7.5 23.9218 7.5 28.6406C7.5 31.5622 8.68527 34.364 10.795 36.4298C12.9048 38.4957 15.7663 39.6562 18.75 39.6562C21.7337 39.6562 24.5952 38.4957 26.705 36.4298C28.8147 34.364 30 31.5622 30 28.6406V18.7266L15 18.1718ZM41.9999 13.3188H42C42.372 13.3188 42.7283 13.4635 42.9907 13.7204C43.253 13.9772 43.4 14.3252 43.4 14.6875V22.0312C43.4 22.3936 43.253 22.7415 42.9907 22.9984C42.7283 23.2553 42.372 23.4 42 23.4H41.9998C38.8821 23.4071 35.8094 22.6731 33.0455 21.2611L32.9 21.1867V21.3501V28.6406C32.9 32.314 31.4097 35.8374 28.7563 38.4355C26.1028 41.0337 22.5035 42.4938 18.75 42.4938C14.9965 42.4938 11.3972 41.0337 8.74369 38.4355C6.09028 35.8374 4.6 32.314 4.6 28.6406C4.6 21.9148 9.61047 15.9674 16.2546 14.8081C16.4564 14.7729 16.6636 14.7816 16.8616 14.8333C17.0596 14.8851 17.2434 14.9786 17.4002 15.1073C17.557 15.236 17.6829 15.3967 17.7692 15.5779C17.8555 15.7591 17.9001 15.9565 17.9 16.1562V16.1562V23.9939V23.9939C17.9001 24.2525 17.8252 24.506 17.6839 24.7249C17.5426 24.9438 17.3405 25.1192 17.101 25.2306C16.4787 25.5195 15.9467 25.9668 15.5607 26.5261C15.1747 27.0853 14.9489 27.7359 14.9071 28.41C14.8653 29.0842 15.0089 29.7568 15.323 30.3578C15.6371 30.9588 16.1099 31.466 16.692 31.8267C17.2741 32.1874 17.9442 32.3884 18.6324 32.4091C19.3206 32.4297 20.0019 32.2691 20.6054 31.9439C21.2088 31.6188 21.7124 31.1409 22.0633 30.5599C22.4143 29.9788 22.5997 29.316 22.6 28.6407V28.6406V4.40625C22.6 4.04392 22.747 3.696 23.0093 3.43914C23.2717 3.18221 23.628 3.0375 24 3.0375H31.5C31.872 3.0375 32.2283 3.18221 32.4907 3.43914L32.5607 3.36769L32.4907 3.43914C32.753 3.696 32.9 4.04392 32.9 4.40625V4.40636C32.9025 6.77 33.8626 9.0357 35.5688 10.7064C37.275 12.377 39.5879 13.3163 41.9999 13.3188ZM40.4914 20.596L40.6 20.6055V20.4964V16.0645V15.9762L40.5124 15.9652C37.8918 15.6376 35.4568 14.4675 33.5893 12.6388C31.7217 10.8102 30.5273 8.42658 30.1929 5.86207L30.1816 5.775H30.0938H25.5H25.4V5.875V28.6406C25.4001 29.7648 25.1028 30.87 24.5368 31.8485C23.9708 32.8269 23.1554 33.6454 22.1699 34.2238C21.1844 34.8023 20.0625 35.121 18.9136 35.1486C17.7646 35.1763 16.6281 34.912 15.6147 34.3817C14.6013 33.8513 13.7458 33.0731 13.1313 32.123C12.5168 31.173 12.1644 30.0834 12.108 28.9606C12.0517 27.8377 12.2934 26.7196 12.8097 25.7153C13.326 24.7109 14.0994 23.8543 15.0547 23.2293L15.1 23.1997V23.1457V18.0656V17.924L14.9665 17.9714C10.5476 19.5402 7.4 23.8422 7.4 28.6406C7.4 31.5894 8.59632 34.4169 10.7251 36.5013C12.8538 38.5856 15.7405 39.7562 18.75 39.7562C21.7595 39.7562 24.6462 38.5856 26.7749 36.5013C28.9037 34.4169 30.1 31.5894 30.1 28.6406V18.7266V18.7264C30.0995 18.4748 30.17 18.2277 30.3039 18.0126C30.4378 17.7974 30.63 17.6223 30.8594 17.5068C31.0889 17.3914 31.3466 17.3402 31.6041 17.3589C31.8617 17.3777 32.1087 17.4658 32.3181 17.6131C34.7189 19.3096 37.5426 20.3401 40.4914 20.596Z" fill="white" stroke="#313131" stroke-width="0.2"/>
</svg>