<svg width="48" height="48" viewBox="0 0 48 48" fill="none" xmlns="http://www.w3.org/2000/svg">
    <path d="M6.97222 38C6.43528 38 6 37.5647 6 37.0278V24.8182C6 24.0378 6.16593 23.2065 6.49778 22.3242C6.75541 21.6392 7.10368 21.0866 7.54258 20.6665C7.77827 20.4409 7.94444 20.1421 7.94444 19.8158V14.2727C7.94444 12.7858 8.31843 11.5353 9.06639 10.5212C9.81435 9.50706 10.7367 9 11.8333 9H20.5833C21.2535 9 21.8258 9.18718 22.3003 9.56155C22.9363 10.0624 24.0637 10.0624 24.6997 9.56155C25.1742 9.18718 25.7465 9 26.4167 9H35.1667C36.2633 9 37.1856 9.50706 37.9336 10.5212C38.6816 11.5353 39.0556 12.7858 39.0556 14.2727V19.8152C39.0556 20.1418 39.2221 20.4408 39.4582 20.6666C39.8976 21.0867 40.2456 21.6392 40.5022 22.3242C40.8341 23.2065 41 24.0378 41 24.8182V37.0278C41 37.5647 40.5647 38 40.0278 38C39.4908 38 39.0556 37.5647 39.0556 37.0278V33.7273C39.0556 33.175 38.6078 32.7273 38.0556 32.7273H8.94445C8.39216 32.7273 7.94444 33.175 7.94444 33.7273V37.0278C7.94444 37.5647 7.50917 38 6.97222 38ZM24.4722 18.5455C24.4722 19.0977 24.9199 19.5455 25.4722 19.5455H36.1111C36.6634 19.5455 37.1111 19.0977 37.1111 18.5455V14.2727C37.1111 13.5258 36.9244 12.9001 36.5511 12.3956C36.1778 11.8912 35.7163 11.6381 35.1667 11.6364H26.4167C25.8657 11.6364 25.4043 11.8895 25.0322 12.3956C24.6602 12.9018 24.4735 13.5275 24.4722 14.2727V18.5455ZM9.88889 18.5455C9.88889 19.0977 10.3366 19.5455 10.8889 19.5455H21.5278C22.0801 19.5455 22.5278 19.0977 22.5278 18.5455V14.2727C22.5278 13.5258 22.3411 12.9001 21.9678 12.3956C21.5944 11.8912 21.133 11.6381 20.5833 11.6364H11.8333C11.2824 11.6364 10.8209 11.8895 10.4489 12.3956C10.0769 12.9018 9.89019 13.5275 9.88889 14.2727V18.5455ZM7.94444 29.0909C7.94444 29.6432 8.39216 30.0909 8.94444 30.0909H38.0556C38.6078 30.0909 39.0556 29.6432 39.0556 29.0909V24.8182C39.0556 24.0712 38.8689 23.4455 38.4956 22.9411C38.1222 22.4367 37.6607 22.1836 37.1111 22.1818H9.88889C9.33796 22.1818 8.87648 22.4349 8.50444 22.9411C8.13241 23.4473 7.94574 24.073 7.94444 24.8182V29.0909Z" fill="#232323" fill-opacity="0.6" stroke="#232323" stroke-opacity="0.6" stroke-width="0.5"/>
</svg>