<svg width="48" height="48" viewBox="0 0 48 48" fill="none" xmlns="http://www.w3.org/2000/svg">
    <path d="M24.5863 7.22901C24.4069 7.22869 24.2296 7.26862 24.0676 7.34588C23.9056 7.42314 23.763 7.53574 23.6503 7.67541L23.4367 7.83381C19.2967 6.55221 14.5735 7.49301 11.2855 10.661C9.90825 11.9673 8.8837 13.6006 8.30715 15.4091C7.7306 17.2177 7.62079 19.1426 7.98793 21.005L7.86793 21.1154L5.99833 22.9154C5.63667 23.2585 5.34865 23.6716 5.15184 24.1296C4.95502 24.5876 4.85352 25.0809 4.85352 25.5794C4.85352 26.0779 4.95502 26.5712 5.15184 27.0292C5.34865 27.4872 5.63667 27.9003 5.99833 28.2434C6.95353 29.165 8.27833 29.5106 9.50953 29.2802C9.66073 29.9738 10.0135 30.6338 10.5727 31.1714C11.3095 31.8818 12.2671 32.249 13.2319 32.2754C13.2583 33.2042 13.6399 34.1258 14.3767 34.8362C15.1135 35.5466 16.0735 35.9162 17.0383 35.9402C17.0623 36.869 17.4463 37.793 18.1831 38.5034C18.8885 39.1728 19.8125 39.564 20.7841 39.6046C21.7557 39.6452 22.7092 39.3324 23.4679 38.7242L24.5167 39.7322C26.0527 41.213 28.5439 41.213 30.0799 39.7322C30.8143 39.0266 31.1959 38.1098 31.2295 37.1834C32.1895 37.1546 33.1375 36.7874 33.8695 36.0818C34.6015 35.3762 34.9855 34.457 35.0143 33.5306C35.9895 33.4953 36.9178 33.1033 37.6231 32.429C38.2063 31.8698 38.5663 31.1762 38.7055 30.4514C39.3233 30.5595 39.9578 30.5212 40.558 30.3395C41.1583 30.1577 41.7075 29.8377 42.1615 29.405C42.5236 29.0619 42.8119 28.6486 43.0089 28.1904C43.206 27.7322 43.3076 27.2386 43.3076 26.7398C43.3076 26.241 43.206 25.7474 43.0089 25.2892C42.8119 24.831 42.5236 24.4177 42.1615 24.0746L40.4335 22.4114L40.7863 21.0914C41.4974 18.3926 41.1362 15.5233 39.7783 13.085C37.7719 9.47061 33.8791 7.23861 29.6695 7.23861H26.7175L26.3359 7.22901H24.5863ZM30.4735 16.1474L36.2455 21.7082L36.2527 21.713L40.4311 25.7402C40.5669 25.8689 40.675 26.0239 40.7488 26.1958C40.8227 26.3676 40.8608 26.5527 40.8608 26.7398C40.8608 26.9269 40.8227 27.112 40.7488 27.2838C40.675 27.4557 40.5669 27.6107 40.4311 27.7394C40.1505 28.0044 39.7791 28.152 39.3931 28.152C39.0071 28.152 38.6358 28.0044 38.3551 27.7394L35.1847 24.6866C34.9523 24.4637 34.6428 24.3392 34.3207 24.3392C33.9987 24.3392 33.6891 24.4637 33.4567 24.6866L33.4231 24.7154C33.3106 24.823 33.221 24.9522 33.1598 25.0953C33.0986 25.2385 33.0671 25.3925 33.0671 25.5482C33.0671 25.7039 33.0986 25.8579 33.1598 26.0011C33.221 26.1442 33.3106 26.2734 33.4231 26.381L35.8951 28.7618C36.4711 29.3138 36.4711 30.2114 35.8951 30.7658C35.6402 31.0073 35.3092 31.1526 34.9588 31.1767C34.6085 31.2008 34.2607 31.1022 33.9751 30.8978C33.7368 30.7256 33.4457 30.6424 33.1524 30.6625C32.859 30.6827 32.582 30.805 32.3695 31.0082C32.1618 31.2068 32.0364 31.4762 32.0182 31.763C32 32.0498 32.0903 32.3329 32.2711 32.5562C32.4866 32.8261 32.5928 33.167 32.5688 33.5115C32.5448 33.8559 32.3923 34.1788 32.1415 34.4162C31.883 34.6614 31.5462 34.8074 31.1905 34.8284C30.8349 34.8495 30.4832 34.7443 30.1975 34.5314C29.9604 34.3535 29.668 34.2651 29.3721 34.2818C29.0761 34.2985 28.7956 34.4192 28.5799 34.6226C28.3695 34.8209 28.2419 35.0914 28.2228 35.3799C28.2036 35.6684 28.2944 35.9535 28.4767 36.1778C28.6983 36.4508 28.8083 36.7976 28.7847 37.1484C28.7612 37.4992 28.6057 37.8281 28.3495 38.069C28.0655 38.3386 27.6888 38.4889 27.2971 38.4889C26.9055 38.4889 26.5288 38.3386 26.2447 38.069L25.2055 37.0682L25.5847 36.7034C25.9468 36.3603 26.2351 35.947 26.4321 35.4888C26.6292 35.0306 26.7308 34.537 26.7308 34.0382C26.7308 33.5394 26.6292 33.0458 26.4321 32.5876C26.2351 32.1294 25.9468 31.7161 25.5847 31.373C24.8669 30.6864 23.9186 30.2926 22.9255 30.269C22.8959 29.2973 22.4846 28.3764 21.7807 27.7058C21.062 27.0195 20.1127 26.6266 19.1191 26.6042C19.0895 25.6325 18.6782 24.7116 17.9743 24.041C17.5133 23.6022 16.9543 23.2794 16.3437 23.0996C15.7331 22.9197 15.0885 22.8878 14.4631 23.0066C14.3045 22.2846 13.9344 21.6262 13.3999 21.1154C12.9903 20.7237 12.5018 20.4238 11.9671 20.236C11.4324 20.0481 10.8637 19.9764 10.2991 20.0258C10.1104 18.6195 10.2579 17.1884 10.7293 15.8501C11.2007 14.5117 11.9827 13.3042 13.0111 12.3266C14.0506 11.3333 15.2969 10.5824 16.6608 10.1276C18.0247 9.67282 19.4724 9.5255 20.8999 9.69621L17.4079 12.2642C16.9611 12.5889 16.5848 13.0007 16.3016 13.4748C16.0184 13.949 15.8342 14.4756 15.7602 15.0229C15.6861 15.5702 15.7238 16.1268 15.8709 16.6592C16.018 17.1915 16.2714 17.6885 16.6159 18.1202C17.313 18.9933 18.3197 19.5643 19.4268 19.7144C20.5339 19.8646 21.6562 19.5825 22.5607 18.9266L26.3431 16.1498L30.4735 16.1474ZM18.8287 14.1962L25.0495 9.62901H26.3359C26.4536 9.62788 26.5713 9.63108 26.6887 9.63861H29.6695C33.0391 9.63861 36.1135 11.4266 37.6807 14.2514C38.7415 16.1618 39.0199 18.3818 38.4655 20.477L38.4583 20.501L31.8343 14.1002C31.6098 13.875 31.3051 13.7481 30.9871 13.7474H25.9471C25.6924 13.7479 25.4444 13.8294 25.2391 13.9802L21.1399 16.9898C20.7371 17.2776 20.2396 17.4008 19.749 17.3343C19.2585 17.2679 18.8117 17.0168 18.4999 16.6322C18.3548 16.4534 18.2478 16.2468 18.1855 16.0251C18.1232 15.8034 18.107 15.5713 18.1378 15.3431C18.1686 15.1149 18.2458 14.8954 18.3646 14.6982C18.4834 14.5009 18.6414 14.3301 18.8287 14.1962ZM19.8895 34.8602L19.9135 34.8362L21.7807 33.0362L21.8023 33.017C22.0845 32.7612 22.4529 32.6213 22.8338 32.6253C23.2146 32.6293 23.58 32.7769 23.8567 33.0386C23.9925 33.1673 24.1006 33.3223 24.1744 33.4942C24.2483 33.666 24.2864 33.8511 24.2864 34.0382C24.2864 34.2253 24.2483 34.4104 24.1744 34.5822C24.1006 34.7541 23.9925 34.9091 23.8567 35.0378L21.9871 36.8378C21.7065 37.1028 21.3351 37.2504 20.9491 37.2504C20.5631 37.2504 20.1918 37.1028 19.9111 36.8378C19.7772 36.711 19.6701 36.5586 19.5961 36.3896C19.5222 36.2206 19.4829 36.0385 19.4807 35.8541C19.4784 35.6696 19.5133 35.4866 19.5831 35.3159C19.6529 35.1452 19.7587 34.9902 19.8895 34.8602ZM20.0719 31.3514L20.0479 31.373L18.1807 33.173L18.1567 33.1946C17.8744 33.4494 17.5063 33.5885 17.126 33.584C16.7457 33.5796 16.381 33.432 16.1047 33.1706C15.9705 33.0432 15.8633 32.8902 15.7896 32.7205C15.7158 32.5508 15.677 32.368 15.6754 32.183C15.6739 31.998 15.7096 31.8145 15.7804 31.6436C15.8513 31.4727 15.9559 31.3178 16.0879 31.1882L16.1047 31.1714L17.9719 29.3714L17.9887 29.3546C18.2706 29.0968 18.6396 28.9551 19.0216 28.9583C19.4036 28.9614 19.7703 29.109 20.0479 29.3714C20.1822 29.4982 20.2897 29.6508 20.3638 29.82C20.438 29.9892 20.4774 30.1716 20.4796 30.3563C20.4819 30.541 20.4469 30.7243 20.3769 30.8953C20.3068 31.0662 20.2031 31.2213 20.0719 31.3514ZM16.2439 27.7058L14.3743 29.5058L14.3575 29.5226C14.0757 29.7805 13.7066 29.9221 13.3246 29.9189C12.9426 29.9158 12.5759 29.7682 12.2983 29.5058C12.1626 29.3771 12.0545 29.2221 11.9806 29.0502C11.9068 28.8784 11.8687 28.6933 11.8687 28.5062C11.8687 28.3191 11.9068 28.134 11.9806 27.9622C12.0545 27.7903 12.1626 27.6353 12.2983 27.5066L14.1655 25.7066C14.4463 25.4409 14.8182 25.2929 15.2047 25.2929C15.5913 25.2929 15.9631 25.4409 16.2439 25.7066C16.3785 25.834 16.486 25.9872 16.56 26.1571C16.634 26.327 16.6729 26.5101 16.6745 26.6954C16.676 26.8807 16.6402 27.0645 16.5691 27.2356C16.498 27.4067 16.3931 27.5618 16.2607 27.6914L16.2439 27.7058ZM11.6695 24.7802L9.80233 26.5802C9.52155 26.8459 9.14968 26.9939 8.76313 26.9939C8.37658 26.9939 8.0047 26.8459 7.72393 26.5802C7.58782 26.4515 7.4794 26.2963 7.40531 26.1242C7.33121 25.9521 7.29299 25.7668 7.29299 25.5794C7.29299 25.3921 7.33121 25.2067 7.40531 25.0346C7.4794 24.8625 7.58782 24.7074 7.72393 24.5786L9.59353 22.7786C9.87418 22.5136 10.2455 22.366 10.6315 22.366C11.0175 22.366 11.3889 22.5136 11.6695 22.7786C11.8056 22.9074 11.9141 23.0625 11.9881 23.2346C12.0622 23.4067 12.1005 23.5921 12.1005 23.7794C12.1005 23.9668 12.0622 24.1521 11.9881 24.3242C11.9141 24.4963 11.8056 24.6515 11.6695 24.7802Z" fill="#232323" fill-opacity="0.6"/>
</svg>