<svg width="40" height="40" viewBox="0 0 40 40" fill="none" xmlns="http://www.w3.org/2000/svg">
<mask id="path-1-outside-1_2_65" maskUnits="userSpaceOnUse" x="3.04492" y="5.02393" width="34" height="30" fill="black">
<rect fill="white" x="3.04492" y="5.02393" width="34" height="30"/>
<path d="M20.4889 6.02393C20.3394 6.02366 20.1917 6.05694 20.0567 6.12132C19.9217 6.1857 19.8029 6.27954 19.7089 6.39593L19.5309 6.52793C16.0809 5.45993 12.1449 6.24393 9.40493 8.88393C8.2572 9.97248 7.40341 11.3336 6.92295 12.8407C6.44249 14.3478 6.35098 15.952 6.65693 17.5039L6.55693 17.5959L4.99893 19.0959C4.69755 19.3818 4.45754 19.7261 4.29352 20.1078C4.12951 20.4894 4.04492 20.9005 4.04492 21.3159C4.04492 21.7313 4.12951 22.1424 4.29352 22.5241C4.45754 22.9057 4.69755 23.25 4.99893 23.5359C5.79493 24.3039 6.89893 24.5919 7.92493 24.3999C8.05093 24.9779 8.34493 25.5279 8.81093 25.9759C9.42493 26.5679 10.2229 26.8739 11.0269 26.8959C11.0489 27.6699 11.3669 28.4379 11.9809 29.0299C12.5949 29.6219 13.3949 29.9299 14.1989 29.9499C14.2189 30.7239 14.5389 31.4939 15.1529 32.0859C15.7407 32.6438 16.5108 32.9698 17.3204 33.0036C18.1301 33.0374 18.9246 32.7768 19.5569 32.2699L20.4309 33.1099C21.7109 34.3439 23.7869 34.3439 25.0669 33.1099C25.6789 32.5219 25.9969 31.7579 26.0249 30.9859C26.8249 30.9619 27.6149 30.6559 28.2249 30.0679C28.8349 29.4799 29.1549 28.7139 29.1789 27.9419C29.9916 27.9125 30.7651 27.5858 31.3529 27.0239C31.8389 26.5579 32.1389 25.9799 32.2549 25.3759C32.7697 25.466 33.2985 25.4341 33.7987 25.2826C34.2989 25.1312 34.7566 24.8645 35.1349 24.5039C35.4366 24.218 35.6769 23.8736 35.8411 23.4917C36.0053 23.1099 36.09 22.6986 36.09 22.2829C36.09 21.8673 36.0053 21.456 35.8411 21.0741C35.6769 20.6923 35.4366 20.3479 35.1349 20.0619L33.6949 18.6759L33.9889 17.5759C34.5815 15.3269 34.2805 12.9359 33.1489 10.9039C31.4769 7.89193 28.2329 6.03193 24.7249 6.03193H22.2649L21.9469 6.02393H20.4889ZM25.3949 13.4559L30.2049 18.0899L30.2109 18.0939L33.6929 21.4499C33.806 21.5572 33.8961 21.6864 33.9577 21.8296C34.0192 21.9728 34.051 22.127 34.051 22.2829C34.051 22.4388 34.0192 22.5931 33.9577 22.7363C33.8961 22.8795 33.806 23.0087 33.6929 23.1159C33.459 23.3367 33.1496 23.4598 32.8279 23.4598C32.5063 23.4598 32.1968 23.3367 31.9629 23.1159L29.3209 20.5719C29.1273 20.3861 28.8693 20.2824 28.6009 20.2824C28.3326 20.2824 28.0746 20.3861 27.8809 20.5719L27.8529 20.5959C27.7591 20.6856 27.6845 20.7933 27.6335 20.9125C27.5825 21.0318 27.5562 21.1602 27.5562 21.2899C27.5562 21.4197 27.5825 21.548 27.6335 21.6673C27.6845 21.7866 27.7591 21.8943 27.8529 21.9839L29.9129 23.9679C30.3929 24.4279 30.3929 25.1759 29.9129 25.6379C29.7005 25.8392 29.4246 25.9603 29.1327 25.9804C28.8407 26.0004 28.5509 25.9182 28.3129 25.7479C28.1143 25.6044 27.8717 25.5351 27.6273 25.5519C27.3828 25.5687 27.152 25.6706 26.9749 25.8399C26.8019 26.0054 26.6973 26.2299 26.6822 26.4689C26.667 26.7079 26.7422 26.9439 26.8929 27.1299C27.0725 27.3548 27.161 27.6389 27.141 27.926C27.121 28.213 26.9939 28.4821 26.7849 28.6799C26.5695 28.8842 26.2888 29.0059 25.9924 29.0235C25.6961 29.041 25.403 28.9534 25.1649 28.7759C24.9673 28.6277 24.7237 28.554 24.4771 28.5679C24.2304 28.5818 23.9966 28.6824 23.8169 28.8519C23.6416 29.0172 23.5353 29.2426 23.5193 29.483C23.5034 29.7234 23.579 29.961 23.7309 30.1479C23.9156 30.3754 24.0073 30.6644 23.9876 30.9568C23.968 31.2491 23.8384 31.5232 23.6249 31.7239C23.3882 31.9486 23.0743 32.0738 22.7479 32.0738C22.4216 32.0738 22.1077 31.9486 21.8709 31.7239L21.0049 30.8899L21.3209 30.5859C21.6226 30.3 21.8629 29.9556 22.0271 29.5737C22.1913 29.1919 22.276 28.7806 22.276 28.3649C22.276 27.9493 22.1913 27.538 22.0271 27.1561C21.8629 26.7743 21.6226 26.4299 21.3209 26.1439C20.7228 25.5717 19.9325 25.2436 19.1049 25.2239C19.0802 24.4142 18.7375 23.6468 18.1509 23.0879C17.552 22.516 16.7609 22.1886 15.9329 22.1699C15.9082 21.3602 15.5655 20.5928 14.9789 20.0339C14.5947 19.6682 14.1289 19.3993 13.6201 19.2494C13.1113 19.0995 12.5741 19.0729 12.0529 19.1719C11.9208 18.5702 11.6123 18.0216 11.1669 17.5959C10.8256 17.2695 10.4185 17.0196 9.97293 16.863C9.52733 16.7065 9.05344 16.6468 8.58293 16.6879C8.42569 15.516 8.54854 14.3234 8.94139 13.2082C9.33425 12.0929 9.98591 11.0866 10.8429 10.2719C11.7091 9.44419 12.7478 8.81839 13.8844 8.43941C15.0209 8.06044 16.2273 7.93767 17.4169 8.07993L14.5069 10.2199C14.1346 10.4905 13.821 10.8337 13.585 11.2288C13.349 11.6239 13.1955 12.0628 13.1338 12.5188C13.0721 12.9749 13.1035 13.4388 13.2261 13.8824C13.3486 14.326 13.5598 14.7402 13.8469 15.0999C14.4278 15.8275 15.2667 16.3033 16.1893 16.4284C17.1119 16.5536 18.0472 16.3185 18.8009 15.7719L21.9529 13.4579L25.3949 13.4559ZM15.6909 11.8299L20.8749 8.02393H21.9469C22.045 8.02299 22.1431 8.02566 22.2409 8.03193H24.7249C27.5329 8.03193 30.0949 9.52193 31.4009 11.8759C32.2849 13.4679 32.5169 15.3179 32.0549 17.0639L32.0489 17.0839L26.5289 11.7499C26.3418 11.5623 26.0879 11.4565 25.8229 11.4559H21.6229C21.4107 11.4563 21.204 11.5243 21.0329 11.6499L17.6169 14.1579C17.2812 14.3977 16.8667 14.5004 16.4579 14.445C16.049 14.3897 15.6767 14.1804 15.4169 13.8599C15.296 13.7109 15.2068 13.5388 15.1549 13.354C15.103 13.1693 15.0895 12.9759 15.1152 12.7857C15.1408 12.5955 15.2051 12.4126 15.3042 12.2483C15.4032 12.0839 15.5348 11.9415 15.6909 11.8299ZM16.5749 29.0499L16.5949 29.0299L18.1509 27.5299L18.1689 27.5139C18.4041 27.3007 18.7111 27.1842 19.0285 27.1875C19.3459 27.1908 19.6503 27.3138 19.8809 27.5319C19.994 27.6392 20.0841 27.7684 20.1457 27.9116C20.2072 28.0548 20.239 28.209 20.239 28.3649C20.239 28.5208 20.2072 28.6751 20.1457 28.8183C20.0841 28.9615 19.994 29.0907 19.8809 29.1979L18.3229 30.6979C18.0891 30.9187 17.7796 31.0418 17.4579 31.0418C17.1363 31.0418 16.8268 30.9187 16.5929 30.6979C16.4813 30.5923 16.392 30.4652 16.3304 30.3244C16.2688 30.1836 16.2361 30.0319 16.2342 29.8782C16.2324 29.7245 16.2614 29.572 16.3196 29.4297C16.3777 29.2874 16.4659 29.1583 16.5749 29.0499ZM16.7269 26.1259L16.7069 26.1439L15.1509 27.6439L15.1309 27.6619C14.8956 27.8743 14.5889 27.9902 14.272 27.9864C13.9551 27.9827 13.6512 27.8597 13.4209 27.6419C13.3091 27.5358 13.2198 27.4082 13.1583 27.2668C13.0968 27.1254 13.0645 26.9731 13.0632 26.8189C13.0619 26.6647 13.0916 26.5119 13.1507 26.3694C13.2098 26.227 13.2969 26.0979 13.4069 25.9899L13.4209 25.9759L14.9769 24.4759L14.9909 24.4619C15.2258 24.247 15.5333 24.129 15.8517 24.1316C16.17 24.1342 16.4756 24.2572 16.7069 24.4759C16.8189 24.5816 16.9084 24.7088 16.9702 24.8498C17.032 24.9908 17.0648 25.1427 17.0667 25.2967C17.0685 25.4506 17.0394 25.6034 16.9811 25.7458C16.9227 25.8883 16.8363 26.0175 16.7269 26.1259ZM13.5369 23.0879L11.9789 24.5879L11.9649 24.6019C11.73 24.8168 11.4225 24.9348 11.1042 24.9322C10.7858 24.9296 10.4803 24.8066 10.2489 24.5879C10.1358 24.4807 10.0457 24.3515 9.98418 24.2083C9.92262 24.0651 9.89088 23.9108 9.89088 23.7549C9.89088 23.599 9.92262 23.4448 9.98418 23.3016C10.0457 23.1584 10.1358 23.0292 10.2489 22.9219L11.8049 21.4219C12.0389 21.2005 12.3488 21.0772 12.6709 21.0772C12.9931 21.0772 13.3029 21.2005 13.5369 21.4219C13.6491 21.5281 13.7387 21.6558 13.8003 21.7974C13.862 21.939 13.8944 22.0915 13.8957 22.2459C13.897 22.4004 13.8672 22.5535 13.8079 22.6961C13.7487 22.8387 13.6613 22.9679 13.5509 23.0759L13.5369 23.0879ZM9.72493 20.6499L8.16893 22.1499C7.93495 22.3713 7.62506 22.4947 7.30293 22.4947C6.9808 22.4947 6.67091 22.3713 6.43693 22.1499C6.32351 22.0426 6.23316 21.9133 6.17141 21.7699C6.10967 21.6265 6.07782 21.4721 6.07782 21.3159C6.07782 21.1598 6.10967 21.0053 6.17141 20.8619C6.23316 20.7185 6.32351 20.5892 6.43693 20.4819L7.99493 18.9819C8.22881 18.7611 8.53828 18.6381 8.85993 18.6381C9.18158 18.6381 9.49105 18.7611 9.72493 18.9819C9.83835 19.0892 9.9287 19.2185 9.99045 19.3619C10.0522 19.5053 10.084 19.6598 10.084 19.8159C10.084 19.9721 10.0522 20.1265 9.99045 20.2699C9.9287 20.4133 9.83835 20.5426 9.72493 20.6499Z"/>
</mask>
<path d="M20.4889 6.02393C20.3394 6.02366 20.1917 6.05694 20.0567 6.12132C19.9217 6.1857 19.8029 6.27954 19.7089 6.39593L19.5309 6.52793C16.0809 5.45993 12.1449 6.24393 9.40493 8.88393C8.2572 9.97248 7.40341 11.3336 6.92295 12.8407C6.44249 14.3478 6.35098 15.952 6.65693 17.5039L6.55693 17.5959L4.99893 19.0959C4.69755 19.3818 4.45754 19.7261 4.29352 20.1078C4.12951 20.4894 4.04492 20.9005 4.04492 21.3159C4.04492 21.7313 4.12951 22.1424 4.29352 22.5241C4.45754 22.9057 4.69755 23.25 4.99893 23.5359C5.79493 24.3039 6.89893 24.5919 7.92493 24.3999C8.05093 24.9779 8.34493 25.5279 8.81093 25.9759C9.42493 26.5679 10.2229 26.8739 11.0269 26.8959C11.0489 27.6699 11.3669 28.4379 11.9809 29.0299C12.5949 29.6219 13.3949 29.9299 14.1989 29.9499C14.2189 30.7239 14.5389 31.4939 15.1529 32.0859C15.7407 32.6438 16.5108 32.9698 17.3204 33.0036C18.1301 33.0374 18.9246 32.7768 19.5569 32.2699L20.4309 33.1099C21.7109 34.3439 23.7869 34.3439 25.0669 33.1099C25.6789 32.5219 25.9969 31.7579 26.0249 30.9859C26.8249 30.9619 27.6149 30.6559 28.2249 30.0679C28.8349 29.4799 29.1549 28.7139 29.1789 27.9419C29.9916 27.9125 30.7651 27.5858 31.3529 27.0239C31.8389 26.5579 32.1389 25.9799 32.2549 25.3759C32.7697 25.466 33.2985 25.4341 33.7987 25.2826C34.2989 25.1312 34.7566 24.8645 35.1349 24.5039C35.4366 24.218 35.6769 23.8736 35.8411 23.4917C36.0053 23.1099 36.09 22.6986 36.09 22.2829C36.09 21.8673 36.0053 21.456 35.8411 21.0741C35.6769 20.6923 35.4366 20.3479 35.1349 20.0619L33.6949 18.6759L33.9889 17.5759C34.5815 15.3269 34.2805 12.9359 33.1489 10.9039C31.4769 7.89193 28.2329 6.03193 24.7249 6.03193H22.2649L21.9469 6.02393H20.4889ZM25.3949 13.4559L30.2049 18.0899L30.2109 18.0939L33.6929 21.4499C33.806 21.5572 33.8961 21.6864 33.9577 21.8296C34.0192 21.9728 34.051 22.127 34.051 22.2829C34.051 22.4388 34.0192 22.5931 33.9577 22.7363C33.8961 22.8795 33.806 23.0087 33.6929 23.1159C33.459 23.3367 33.1496 23.4598 32.8279 23.4598C32.5063 23.4598 32.1968 23.3367 31.9629 23.1159L29.3209 20.5719C29.1273 20.3861 28.8693 20.2824 28.6009 20.2824C28.3326 20.2824 28.0746 20.3861 27.8809 20.5719L27.8529 20.5959C27.7591 20.6856 27.6845 20.7933 27.6335 20.9125C27.5825 21.0318 27.5562 21.1602 27.5562 21.2899C27.5562 21.4197 27.5825 21.548 27.6335 21.6673C27.6845 21.7866 27.7591 21.8943 27.8529 21.9839L29.9129 23.9679C30.3929 24.4279 30.3929 25.1759 29.9129 25.6379C29.7005 25.8392 29.4246 25.9603 29.1327 25.9804C28.8407 26.0004 28.5509 25.9182 28.3129 25.7479C28.1143 25.6044 27.8717 25.5351 27.6273 25.5519C27.3828 25.5687 27.152 25.6706 26.9749 25.8399C26.8019 26.0054 26.6973 26.2299 26.6822 26.4689C26.667 26.7079 26.7422 26.9439 26.8929 27.1299C27.0725 27.3548 27.161 27.6389 27.141 27.926C27.121 28.213 26.9939 28.4821 26.7849 28.6799C26.5695 28.8842 26.2888 29.0059 25.9924 29.0235C25.6961 29.041 25.403 28.9534 25.1649 28.7759C24.9673 28.6277 24.7237 28.554 24.4771 28.5679C24.2304 28.5818 23.9966 28.6824 23.8169 28.8519C23.6416 29.0172 23.5353 29.2426 23.5193 29.483C23.5034 29.7234 23.579 29.961 23.7309 30.1479C23.9156 30.3754 24.0073 30.6644 23.9876 30.9568C23.968 31.2491 23.8384 31.5232 23.6249 31.7239C23.3882 31.9486 23.0743 32.0738 22.7479 32.0738C22.4216 32.0738 22.1077 31.9486 21.8709 31.7239L21.0049 30.8899L21.3209 30.5859C21.6226 30.3 21.8629 29.9556 22.0271 29.5737C22.1913 29.1919 22.276 28.7806 22.276 28.3649C22.276 27.9493 22.1913 27.538 22.0271 27.1561C21.8629 26.7743 21.6226 26.4299 21.3209 26.1439C20.7228 25.5717 19.9325 25.2436 19.1049 25.2239C19.0802 24.4142 18.7375 23.6468 18.1509 23.0879C17.552 22.516 16.7609 22.1886 15.9329 22.1699C15.9082 21.3602 15.5655 20.5928 14.9789 20.0339C14.5947 19.6682 14.1289 19.3993 13.6201 19.2494C13.1113 19.0995 12.5741 19.0729 12.0529 19.1719C11.9208 18.5702 11.6123 18.0216 11.1669 17.5959C10.8256 17.2695 10.4185 17.0196 9.97293 16.863C9.52733 16.7065 9.05344 16.6468 8.58293 16.6879C8.42569 15.516 8.54854 14.3234 8.94139 13.2082C9.33425 12.0929 9.98591 11.0866 10.8429 10.2719C11.7091 9.44419 12.7478 8.81839 13.8844 8.43941C15.0209 8.06044 16.2273 7.93767 17.4169 8.07993L14.5069 10.2199C14.1346 10.4905 13.821 10.8337 13.585 11.2288C13.349 11.6239 13.1955 12.0628 13.1338 12.5188C13.0721 12.9749 13.1035 13.4388 13.2261 13.8824C13.3486 14.326 13.5598 14.7402 13.8469 15.0999C14.4278 15.8275 15.2667 16.3033 16.1893 16.4284C17.1119 16.5536 18.0472 16.3185 18.8009 15.7719L21.9529 13.4579L25.3949 13.4559ZM15.6909 11.8299L20.8749 8.02393H21.9469C22.045 8.02299 22.1431 8.02566 22.2409 8.03193H24.7249C27.5329 8.03193 30.0949 9.52193 31.4009 11.8759C32.2849 13.4679 32.5169 15.3179 32.0549 17.0639L32.0489 17.0839L26.5289 11.7499C26.3418 11.5623 26.0879 11.4565 25.8229 11.4559H21.6229C21.4107 11.4563 21.204 11.5243 21.0329 11.6499L17.6169 14.1579C17.2812 14.3977 16.8667 14.5004 16.4579 14.445C16.049 14.3897 15.6767 14.1804 15.4169 13.8599C15.296 13.7109 15.2068 13.5388 15.1549 13.354C15.103 13.1693 15.0895 12.9759 15.1152 12.7857C15.1408 12.5955 15.2051 12.4126 15.3042 12.2483C15.4032 12.0839 15.5348 11.9415 15.6909 11.8299ZM16.5749 29.0499L16.5949 29.0299L18.1509 27.5299L18.1689 27.5139C18.4041 27.3007 18.7111 27.1842 19.0285 27.1875C19.3459 27.1908 19.6503 27.3138 19.8809 27.5319C19.994 27.6392 20.0841 27.7684 20.1457 27.9116C20.2072 28.0548 20.239 28.209 20.239 28.3649C20.239 28.5208 20.2072 28.6751 20.1457 28.8183C20.0841 28.9615 19.994 29.0907 19.8809 29.1979L18.3229 30.6979C18.0891 30.9187 17.7796 31.0418 17.4579 31.0418C17.1363 31.0418 16.8268 30.9187 16.5929 30.6979C16.4813 30.5923 16.392 30.4652 16.3304 30.3244C16.2688 30.1836 16.2361 30.0319 16.2342 29.8782C16.2324 29.7245 16.2614 29.572 16.3196 29.4297C16.3777 29.2874 16.4659 29.1583 16.5749 29.0499ZM16.7269 26.1259L16.7069 26.1439L15.1509 27.6439L15.1309 27.6619C14.8956 27.8743 14.5889 27.9902 14.272 27.9864C13.9551 27.9827 13.6512 27.8597 13.4209 27.6419C13.3091 27.5358 13.2198 27.4082 13.1583 27.2668C13.0968 27.1254 13.0645 26.9731 13.0632 26.8189C13.0619 26.6647 13.0916 26.5119 13.1507 26.3694C13.2098 26.227 13.2969 26.0979 13.4069 25.9899L13.4209 25.9759L14.9769 24.4759L14.9909 24.4619C15.2258 24.247 15.5333 24.129 15.8517 24.1316C16.17 24.1342 16.4756 24.2572 16.7069 24.4759C16.8189 24.5816 16.9084 24.7088 16.9702 24.8498C17.032 24.9908 17.0648 25.1427 17.0667 25.2967C17.0685 25.4506 17.0394 25.6034 16.9811 25.7458C16.9227 25.8883 16.8363 26.0175 16.7269 26.1259ZM13.5369 23.0879L11.9789 24.5879L11.9649 24.6019C11.73 24.8168 11.4225 24.9348 11.1042 24.9322C10.7858 24.9296 10.4803 24.8066 10.2489 24.5879C10.1358 24.4807 10.0457 24.3515 9.98418 24.2083C9.92262 24.0651 9.89088 23.9108 9.89088 23.7549C9.89088 23.599 9.92262 23.4448 9.98418 23.3016C10.0457 23.1584 10.1358 23.0292 10.2489 22.9219L11.8049 21.4219C12.0389 21.2005 12.3488 21.0772 12.6709 21.0772C12.9931 21.0772 13.3029 21.2005 13.5369 21.4219C13.6491 21.5281 13.7387 21.6558 13.8003 21.7974C13.862 21.939 13.8944 22.0915 13.8957 22.2459C13.897 22.4004 13.8672 22.5535 13.8079 22.6961C13.7487 22.8387 13.6613 22.9679 13.5509 23.0759L13.5369 23.0879ZM9.72493 20.6499L8.16893 22.1499C7.93495 22.3713 7.62506 22.4947 7.30293 22.4947C6.9808 22.4947 6.67091 22.3713 6.43693 22.1499C6.32351 22.0426 6.23316 21.9133 6.17141 21.7699C6.10967 21.6265 6.07782 21.4721 6.07782 21.3159C6.07782 21.1598 6.10967 21.0053 6.17141 20.8619C6.23316 20.7185 6.32351 20.5892 6.43693 20.4819L7.99493 18.9819C8.22881 18.7611 8.53828 18.6381 8.85993 18.6381C9.18158 18.6381 9.49105 18.7611 9.72493 18.9819C9.83835 19.0892 9.9287 19.2185 9.99045 19.3619C10.0522 19.5053 10.084 19.6598 10.084 19.8159C10.084 19.9721 10.0522 20.1265 9.99045 20.2699C9.9287 20.4133 9.83835 20.5426 9.72493 20.6499Z" fill="#EC7A25"/>
<path d="M20.4889 6.02393C20.3394 6.02366 20.1917 6.05694 20.0567 6.12132C19.9217 6.1857 19.8029 6.27954 19.7089 6.39593L19.5309 6.52793C16.0809 5.45993 12.1449 6.24393 9.40493 8.88393C8.2572 9.97248 7.40341 11.3336 6.92295 12.8407C6.44249 14.3478 6.35098 15.952 6.65693 17.5039L6.55693 17.5959L4.99893 19.0959C4.69755 19.3818 4.45754 19.7261 4.29352 20.1078C4.12951 20.4894 4.04492 20.9005 4.04492 21.3159C4.04492 21.7313 4.12951 22.1424 4.29352 22.5241C4.45754 22.9057 4.69755 23.25 4.99893 23.5359C5.79493 24.3039 6.89893 24.5919 7.92493 24.3999C8.05093 24.9779 8.34493 25.5279 8.81093 25.9759C9.42493 26.5679 10.2229 26.8739 11.0269 26.8959C11.0489 27.6699 11.3669 28.4379 11.9809 29.0299C12.5949 29.6219 13.3949 29.9299 14.1989 29.9499C14.2189 30.7239 14.5389 31.4939 15.1529 32.0859C15.7407 32.6438 16.5108 32.9698 17.3204 33.0036C18.1301 33.0374 18.9246 32.7768 19.5569 32.2699L20.4309 33.1099C21.7109 34.3439 23.7869 34.3439 25.0669 33.1099C25.6789 32.5219 25.9969 31.7579 26.0249 30.9859C26.8249 30.9619 27.6149 30.6559 28.2249 30.0679C28.8349 29.4799 29.1549 28.7139 29.1789 27.9419C29.9916 27.9125 30.7651 27.5858 31.3529 27.0239C31.8389 26.5579 32.1389 25.9799 32.2549 25.3759C32.7697 25.466 33.2985 25.4341 33.7987 25.2826C34.2989 25.1312 34.7566 24.8645 35.1349 24.5039C35.4366 24.218 35.6769 23.8736 35.8411 23.4917C36.0053 23.1099 36.09 22.6986 36.09 22.2829C36.09 21.8673 36.0053 21.456 35.8411 21.0741C35.6769 20.6923 35.4366 20.3479 35.1349 20.0619L33.6949 18.6759L33.9889 17.5759C34.5815 15.3269 34.2805 12.9359 33.1489 10.9039C31.4769 7.89193 28.2329 6.03193 24.7249 6.03193H22.2649L21.9469 6.02393H20.4889ZM25.3949 13.4559L30.2049 18.0899L30.2109 18.0939L33.6929 21.4499C33.806 21.5572 33.8961 21.6864 33.9577 21.8296C34.0192 21.9728 34.051 22.127 34.051 22.2829C34.051 22.4388 34.0192 22.5931 33.9577 22.7363C33.8961 22.8795 33.806 23.0087 33.6929 23.1159C33.459 23.3367 33.1496 23.4598 32.8279 23.4598C32.5063 23.4598 32.1968 23.3367 31.9629 23.1159L29.3209 20.5719C29.1273 20.3861 28.8693 20.2824 28.6009 20.2824C28.3326 20.2824 28.0746 20.3861 27.8809 20.5719L27.8529 20.5959C27.7591 20.6856 27.6845 20.7933 27.6335 20.9125C27.5825 21.0318 27.5562 21.1602 27.5562 21.2899C27.5562 21.4197 27.5825 21.548 27.6335 21.6673C27.6845 21.7866 27.7591 21.8943 27.8529 21.9839L29.9129 23.9679C30.3929 24.4279 30.3929 25.1759 29.9129 25.6379C29.7005 25.8392 29.4246 25.9603 29.1327 25.9804C28.8407 26.0004 28.5509 25.9182 28.3129 25.7479C28.1143 25.6044 27.8717 25.5351 27.6273 25.5519C27.3828 25.5687 27.152 25.6706 26.9749 25.8399C26.8019 26.0054 26.6973 26.2299 26.6822 26.4689C26.667 26.7079 26.7422 26.9439 26.8929 27.1299C27.0725 27.3548 27.161 27.6389 27.141 27.926C27.121 28.213 26.9939 28.4821 26.7849 28.6799C26.5695 28.8842 26.2888 29.0059 25.9924 29.0235C25.6961 29.041 25.403 28.9534 25.1649 28.7759C24.9673 28.6277 24.7237 28.554 24.4771 28.5679C24.2304 28.5818 23.9966 28.6824 23.8169 28.8519C23.6416 29.0172 23.5353 29.2426 23.5193 29.483C23.5034 29.7234 23.579 29.961 23.7309 30.1479C23.9156 30.3754 24.0073 30.6644 23.9876 30.9568C23.968 31.2491 23.8384 31.5232 23.6249 31.7239C23.3882 31.9486 23.0743 32.0738 22.7479 32.0738C22.4216 32.0738 22.1077 31.9486 21.8709 31.7239L21.0049 30.8899L21.3209 30.5859C21.6226 30.3 21.8629 29.9556 22.0271 29.5737C22.1913 29.1919 22.276 28.7806 22.276 28.3649C22.276 27.9493 22.1913 27.538 22.0271 27.1561C21.8629 26.7743 21.6226 26.4299 21.3209 26.1439C20.7228 25.5717 19.9325 25.2436 19.1049 25.2239C19.0802 24.4142 18.7375 23.6468 18.1509 23.0879C17.552 22.516 16.7609 22.1886 15.9329 22.1699C15.9082 21.3602 15.5655 20.5928 14.9789 20.0339C14.5947 19.6682 14.1289 19.3993 13.6201 19.2494C13.1113 19.0995 12.5741 19.0729 12.0529 19.1719C11.9208 18.5702 11.6123 18.0216 11.1669 17.5959C10.8256 17.2695 10.4185 17.0196 9.97293 16.863C9.52733 16.7065 9.05344 16.6468 8.58293 16.6879C8.42569 15.516 8.54854 14.3234 8.94139 13.2082C9.33425 12.0929 9.98591 11.0866 10.8429 10.2719C11.7091 9.44419 12.7478 8.81839 13.8844 8.43941C15.0209 8.06044 16.2273 7.93767 17.4169 8.07993L14.5069 10.2199C14.1346 10.4905 13.821 10.8337 13.585 11.2288C13.349 11.6239 13.1955 12.0628 13.1338 12.5188C13.0721 12.9749 13.1035 13.4388 13.2261 13.8824C13.3486 14.326 13.5598 14.7402 13.8469 15.0999C14.4278 15.8275 15.2667 16.3033 16.1893 16.4284C17.1119 16.5536 18.0472 16.3185 18.8009 15.7719L21.9529 13.4579L25.3949 13.4559ZM15.6909 11.8299L20.8749 8.02393H21.9469C22.045 8.02299 22.1431 8.02566 22.2409 8.03193H24.7249C27.5329 8.03193 30.0949 9.52193 31.4009 11.8759C32.2849 13.4679 32.5169 15.3179 32.0549 17.0639L32.0489 17.0839L26.5289 11.7499C26.3418 11.5623 26.0879 11.4565 25.8229 11.4559H21.6229C21.4107 11.4563 21.204 11.5243 21.0329 11.6499L17.6169 14.1579C17.2812 14.3977 16.8667 14.5004 16.4579 14.445C16.049 14.3897 15.6767 14.1804 15.4169 13.8599C15.296 13.7109 15.2068 13.5388 15.1549 13.354C15.103 13.1693 15.0895 12.9759 15.1152 12.7857C15.1408 12.5955 15.2051 12.4126 15.3042 12.2483C15.4032 12.0839 15.5348 11.9415 15.6909 11.8299ZM16.5749 29.0499L16.5949 29.0299L18.1509 27.5299L18.1689 27.5139C18.4041 27.3007 18.7111 27.1842 19.0285 27.1875C19.3459 27.1908 19.6503 27.3138 19.8809 27.5319C19.994 27.6392 20.0841 27.7684 20.1457 27.9116C20.2072 28.0548 20.239 28.209 20.239 28.3649C20.239 28.5208 20.2072 28.6751 20.1457 28.8183C20.0841 28.9615 19.994 29.0907 19.8809 29.1979L18.3229 30.6979C18.0891 30.9187 17.7796 31.0418 17.4579 31.0418C17.1363 31.0418 16.8268 30.9187 16.5929 30.6979C16.4813 30.5923 16.392 30.4652 16.3304 30.3244C16.2688 30.1836 16.2361 30.0319 16.2342 29.8782C16.2324 29.7245 16.2614 29.572 16.3196 29.4297C16.3777 29.2874 16.4659 29.1583 16.5749 29.0499ZM16.7269 26.1259L16.7069 26.1439L15.1509 27.6439L15.1309 27.6619C14.8956 27.8743 14.5889 27.9902 14.272 27.9864C13.9551 27.9827 13.6512 27.8597 13.4209 27.6419C13.3091 27.5358 13.2198 27.4082 13.1583 27.2668C13.0968 27.1254 13.0645 26.9731 13.0632 26.8189C13.0619 26.6647 13.0916 26.5119 13.1507 26.3694C13.2098 26.227 13.2969 26.0979 13.4069 25.9899L13.4209 25.9759L14.9769 24.4759L14.9909 24.4619C15.2258 24.247 15.5333 24.129 15.8517 24.1316C16.17 24.1342 16.4756 24.2572 16.7069 24.4759C16.8189 24.5816 16.9084 24.7088 16.9702 24.8498C17.032 24.9908 17.0648 25.1427 17.0667 25.2967C17.0685 25.4506 17.0394 25.6034 16.9811 25.7458C16.9227 25.8883 16.8363 26.0175 16.7269 26.1259ZM13.5369 23.0879L11.9789 24.5879L11.9649 24.6019C11.73 24.8168 11.4225 24.9348 11.1042 24.9322C10.7858 24.9296 10.4803 24.8066 10.2489 24.5879C10.1358 24.4807 10.0457 24.3515 9.98418 24.2083C9.92262 24.0651 9.89088 23.9108 9.89088 23.7549C9.89088 23.599 9.92262 23.4448 9.98418 23.3016C10.0457 23.1584 10.1358 23.0292 10.2489 22.9219L11.8049 21.4219C12.0389 21.2005 12.3488 21.0772 12.6709 21.0772C12.9931 21.0772 13.3029 21.2005 13.5369 21.4219C13.6491 21.5281 13.7387 21.6558 13.8003 21.7974C13.862 21.939 13.8944 22.0915 13.8957 22.2459C13.897 22.4004 13.8672 22.5535 13.8079 22.6961C13.7487 22.8387 13.6613 22.9679 13.5509 23.0759L13.5369 23.0879ZM9.72493 20.6499L8.16893 22.1499C7.93495 22.3713 7.62506 22.4947 7.30293 22.4947C6.9808 22.4947 6.67091 22.3713 6.43693 22.1499C6.32351 22.0426 6.23316 21.9133 6.17141 21.7699C6.10967 21.6265 6.07782 21.4721 6.07782 21.3159C6.07782 21.1598 6.10967 21.0053 6.17141 20.8619C6.23316 20.7185 6.32351 20.5892 6.43693 20.4819L7.99493 18.9819C8.22881 18.7611 8.53828 18.6381 8.85993 18.6381C9.18158 18.6381 9.49105 18.7611 9.72493 18.9819C9.83835 19.0892 9.9287 19.2185 9.99045 19.3619C10.0522 19.5053 10.084 19.6598 10.084 19.8159C10.084 19.9721 10.0522 20.1265 9.99045 20.2699C9.9287 20.4133 9.83835 20.5426 9.72493 20.6499Z" stroke="#EC7A25" stroke-width="0.2" mask="url(#path-1-outside-1_2_65)"/>
</svg>
