<svg width="38" height="35" viewBox="0 0 38 35" fill="none" xmlns="http://www.w3.org/2000/svg">
<path d="M22.334 28.6667C28.619 28.6667 31.7623 28.6667 33.714 26.7133C35.6673 24.7617 35.6673 21.6183 35.6673 15.3333C35.6673 9.04833 35.6673 5.905 33.714 3.95333C31.7623 2 28.619 2 22.334 2H15.6673C9.38232 2 6.23898 2 4.28732 3.95333C2.33398 5.905 2.33398 9.04833 2.33398 15.3333C2.33398 21.6183 2.33398 24.7617 4.28732 26.7133C5.37565 27.8033 6.83398 28.285 9.00065 28.4967" stroke="#EC7A25" stroke-width="3" stroke-linecap="round" stroke-linejoin="round"/>
<path d="M22.3347 28.6665C20.2747 28.6665 18.0047 29.4998 15.933 30.5748C12.603 32.3032 10.938 33.1682 10.118 32.6165C9.29804 32.0665 9.45304 30.3582 9.76471 26.9432L9.83471 26.1665" stroke="#EC7A25" stroke-width="3" stroke-linecap="round"/>
<path d="M8.16797 19.5L9.83464 16.1667M9.83464 16.1667L11.678 12.4817C11.8165 12.2052 12.0293 11.9727 12.2924 11.8103C12.5556 11.6478 12.8587 11.5618 13.168 11.5618C13.4772 11.5618 13.7804 11.6478 14.0435 11.8103C14.3067 11.9727 14.5194 12.2052 14.658 12.4817L16.5013 16.1667M9.83464 16.1667H16.5013M16.5013 16.1667L18.168 19.5M19.8346 9.5H23.138V12C23.138 12.8333 22.3113 14.5 20.6596 14.5M27.2663 9.5V12.8333M27.2663 12.8333V19.5M27.2663 12.8333H29.8346" stroke="#EC7A25" stroke-width="3" stroke-linecap="round" stroke-linejoin="round"/>
</svg>
