<svg width="40" height="40" viewBox="0 0 40 40" fill="none" xmlns="http://www.w3.org/2000/svg">
<path d="M16.1004 16.101L15.526 15.5266M23.6464 23.6473L23.0719 23.0728M15.526 23.6408L23.6399 15.5266M15.8716 6.01669C16.8145 5.21338 17.2867 4.81092 17.78 4.57561C18.343 4.30661 18.959 4.16699 19.5829 4.16699C20.2068 4.16699 20.8229 4.30661 21.3858 4.57561C21.8792 4.81092 22.3514 5.21338 23.2942 6.01669C24.2663 6.84434 25.2529 7.26303 26.5511 7.36527C27.7861 7.46427 28.4044 7.51457 28.9204 7.69633C30.1115 8.11827 31.0495 9.05465 31.4698 10.2474C31.6516 10.7619 31.7019 11.3802 31.8008 12.6168C31.9031 13.9151 32.3201 14.9001 33.1478 15.8722C33.9527 16.8151 34.3551 17.2873 34.5904 17.7807C35.1357 18.9215 35.1357 20.2474 34.5904 21.3866C34.3551 21.88 33.9527 22.3522 33.1494 23.2951C32.3459 24.1979 31.8707 25.3456 31.8008 26.5521C31.7019 27.7871 31.6516 28.4054 31.4698 28.9215C31.2618 29.5099 30.9247 30.0442 30.4832 30.4854C30.0418 30.9265 29.5073 31.2633 28.9188 31.471C28.4044 31.6527 27.7861 31.7031 26.5495 31.802C25.2513 31.9043 24.2663 32.3214 23.2942 33.149C22.3514 33.9539 21.8792 34.3564 21.3858 34.5917C20.8229 34.8607 20.2068 35.0003 19.5829 35.0003C18.959 35.0003 18.343 34.8607 17.78 34.5917C17.2867 34.3564 16.8145 33.9539 15.8716 33.1506C14.9689 32.3471 13.8212 31.8719 12.6147 31.802C11.3798 31.7031 10.7615 31.6527 10.2454 31.471C9.65707 31.2629 9.12273 30.9258 8.6816 30.4844C8.24046 30.043 7.90371 29.5084 7.69604 28.9199C7.51429 28.4054 7.46398 27.7871 7.36499 26.5505C7.29537 25.3447 6.82079 24.1976 6.01808 23.2951C5.21318 22.3522 4.81073 21.88 4.5738 21.3866C4.30507 20.8235 4.16574 20.2074 4.16602 19.5835C4.1663 18.9595 4.30618 18.3435 4.57543 17.7807C4.81073 17.2873 5.21318 16.8151 6.01646 15.8722C6.8603 14.8807 7.26438 13.8875 7.36499 12.6152C7.46398 11.3802 7.51429 10.7619 7.69604 10.2458C7.90409 9.65744 8.24118 9.12308 8.68259 8.68193C9.12401 8.24078 9.65856 7.90402 10.2471 7.69633C10.7615 7.51457 11.3798 7.46427 12.6163 7.36527C13.8221 7.29566 14.9691 6.81943 15.8716 6.01669Z" stroke="#EC7A25" stroke-width="3" stroke-linecap="round" stroke-linejoin="round"/>
</svg>
